<svg width="205" height="113" viewBox="0 0 205 113" fill="none" xmlns="http://www.w3.org/2000/svg">
<g clip-path="url(#clip0_94_2)">
<path d="M19.3662 85.5858C20.6303 85.4775 21.8606 85.2232 23.0522 84.823C24.2439 84.4227 25.3295 83.8859 26.3041 83.2173C27.2787 82.5439 28.0651 81.6869 28.6633 80.6416C29.2568 79.5963 29.5559 78.4568 29.5559 77.2231C29.5559 75.8434 29.223 74.638 28.5524 73.6115C27.8817 72.585 26.9747 71.7562 25.8313 71.1206C24.6878 70.4849 23.3755 69.9293 21.8943 69.4584C20.4132 68.9875 18.8596 68.5732 17.2337 68.22C15.603 67.8668 13.9771 67.5184 12.3463 67.1699C10.7156 66.8262 9.16204 66.3977 7.68569 65.8892C6.20452 65.3806 4.89221 64.792 3.74876 64.1187C2.60532 63.4453 1.69828 62.5648 1.02765 61.4771C0.357025 60.3894 0.0241233 59.118 0.0241233 57.663C0.0241233 56.208 0.376324 54.8708 1.08555 53.5335C1.79478 52.2009 2.79348 51.0002 4.08649 49.936C5.3795 48.8718 7.02954 48.0196 9.04142 47.3745C11.0533 46.7294 13.2678 46.4092 15.685 46.4092C18.7004 46.4092 21.5373 47.0543 24.2005 48.3445C26.8637 49.6347 29.1217 51.4051 30.984 53.6559L28.2484 55.4264C26.4247 52.6859 24.1233 50.6329 21.3395 49.2674C18.5557 47.9066 15.6126 47.3509 12.5055 47.6052C10.8121 47.7512 9.24406 48.1326 7.80148 48.7494C6.35891 49.3663 5.16722 50.228 4.22641 51.3392C3.2856 52.4458 2.8176 53.6842 2.8176 55.045C2.8176 55.9161 2.96717 56.7213 3.2663 57.4558C3.56543 58.1904 3.93693 58.8261 4.3808 59.3629C4.82949 59.8997 5.44222 60.3988 6.22382 60.8603C7.00541 61.3217 7.74841 61.7078 8.45764 62.0186C9.16686 62.3294 10.0739 62.6354 11.1787 62.9462C12.2836 63.257 13.2485 63.5019 14.0687 63.6808C14.8889 63.8644 15.9214 64.0904 17.1662 64.3636C18.2807 64.599 19.125 64.7826 19.6943 64.9098C20.2636 65.0369 21.0645 65.23 22.097 65.4795C23.1294 65.7338 23.9255 65.9598 24.4852 66.1623C25.0448 66.36 25.7396 66.6284 26.5791 66.9675C27.4186 67.3018 28.0699 67.6361 28.5331 67.961C28.9962 68.2859 29.5077 68.6909 30.0673 69.1712C30.627 69.6514 31.0467 70.1506 31.3362 70.6685C31.6257 71.1865 31.8669 71.7798 32.0599 72.4531C32.2577 73.1265 32.3542 73.8422 32.3542 74.605C32.3542 78.3108 30.8489 81.2679 27.8335 83.4716C24.8181 85.68 20.939 86.7818 16.1916 86.7818C13.1231 86.7818 10.1125 86.1226 7.1598 84.8088C4.21193 83.4904 1.82372 81.734 0 79.5351L2.76453 77.7646C4.54966 80.4721 6.97647 82.5157 10.0353 83.8953C13.0941 85.275 16.2109 85.84 19.371 85.5858H19.3662Z" fill="#010202"/>
<path d="M64.6987 86.1319H36.8652V85.807C38.7276 85.807 39.6587 84.4179 39.6587 81.6398V51.5887C39.6587 48.7917 38.7276 47.3932 36.8652 47.3932V47.0683C37.6468 47.0683 39.9964 47.0683 43.9141 47.0542C47.8317 47.0447 51.4936 47.04 54.8998 47.04C58.306 47.04 60.8293 47.0495 62.4649 47.0683V53.4722H62.132C62.132 52.0172 61.7509 50.7458 60.9886 49.6581C60.2263 48.5704 59.1745 48.0242 57.8332 48.0242H43.4847V65.2157H55.6814C58.528 65.2157 59.9513 64.3069 59.9513 62.4894H60.2842V68.8932H59.9513C59.9513 67.0568 58.528 66.1433 55.6814 66.1433H43.4847V85.2137H60.096C61.4372 85.2137 62.4842 84.6628 63.2369 83.5656C63.9895 82.4685 64.3658 81.1924 64.3658 79.7374H64.6987V86.1413V86.1319Z" fill="#010202"/>
<path d="M78.9608 86.1319H69.5527V85.807C71.4151 85.807 72.3462 84.418 72.3462 81.6398V51.5887C72.3462 48.7918 71.4151 47.3933 69.5527 47.3933V47.0684H80.2731C85.6864 47.0684 89.8501 47.8924 92.7642 49.5357C95.6783 51.1791 97.1305 53.444 97.1305 56.3351C97.1305 58.9343 95.9629 61.1004 93.6278 62.8332C91.2927 64.566 87.9637 65.6254 83.6504 66.0069L95.8472 81.6445C98.0038 84.4227 100.117 85.8118 102.182 85.8118V86.1367H92.7738V85.8118C94.3563 85.8118 94.2791 84.6393 92.5519 82.299C92.4023 82.1013 92.2335 81.88 92.0501 81.6445L79.9354 66.1434H76.1673V81.6445C76.1673 84.4227 77.0985 85.8118 78.9608 85.8118V86.1367V86.1319ZM79.2696 48.0195H76.1722V65.2111H81.4504C85.0592 65.2111 87.9492 64.4012 90.1203 62.7861C92.2866 61.171 93.3721 59.0191 93.3721 56.3304C93.3721 54.7671 93.0344 53.4393 92.3541 52.3374C91.6738 51.2403 90.6896 50.3786 89.3966 49.7618C88.1036 49.1449 86.632 48.6976 84.9868 48.4292C83.3416 48.1608 81.4359 48.0195 79.2793 48.0195H79.2696Z" fill="#010202"/>
<path d="M133.339 86.1319H105.506V85.807C107.368 85.807 108.299 84.4179 108.299 81.6398V51.5887C108.299 48.7917 107.368 47.3932 105.506 47.3932V47.0683C106.287 47.0683 108.637 47.0683 112.555 47.0542C116.472 47.0447 120.134 47.04 123.54 47.04C126.947 47.04 129.47 47.0495 131.106 47.0683V53.4722H130.773C130.773 52.0172 130.391 50.7458 129.629 49.6581C128.867 48.5704 127.815 48.0242 126.474 48.0242H112.125V65.2157H124.322C127.169 65.2157 128.592 64.3069 128.592 62.4894H128.925V68.8932H128.592C128.592 67.0568 127.169 66.1433 124.322 66.1433H112.125V85.2137H128.737C130.078 85.2137 131.125 84.6628 131.877 83.5656C132.63 82.4685 133.006 81.1924 133.006 79.7374H133.339V86.1413V86.1319Z" fill="#010202"/>
<path d="M144.759 86.1319H138.197V85.807C140.06 85.807 140.991 84.418 140.991 81.6398V51.5887C140.991 48.7918 140.06 47.3933 138.197 47.3933V47.0684H144.812L167.536 80.5521V51.5934C167.536 48.7965 166.595 47.398 164.718 47.398V47.0731H171.28V47.398C169.418 47.398 168.487 48.7965 168.487 51.5934V86.1367H167.536L141.936 48.4857V81.6398C141.936 84.418 142.877 85.807 144.754 85.807V86.1319H144.759Z" fill="#010202"/>
<path d="M180.935 86.1318H174.402V85.8069C176.318 85.8069 177.678 84.4272 178.479 81.6679L187.805 49.545L187.082 47.0635H190.879L200.899 81.6632C201.7 84.4225 203.066 85.8022 205 85.8022V86.1271H195.621V85.8022C197.406 85.8022 197.898 84.4131 197.102 81.6349L192.886 67.0614H183.675L179.459 81.6349C178.658 84.4131 179.15 85.8022 180.94 85.8022V86.1271H180.935V86.1318ZM192.606 66.1338L188.278 51.1789L183.921 66.1338H192.606Z" fill="#010202"/>
<path d="M49.7521 112.986C47.5328 112.986 45.5112 111.884 43.6875 109.685L44.9323 108.889C45.3327 109.492 45.6801 109.987 45.9889 110.373C46.2976 110.759 46.6402 111.131 47.031 111.493C47.4218 111.856 47.8319 112.124 48.2565 112.299C48.6858 112.473 49.149 112.558 49.646 112.558C50.6543 112.558 51.3394 112.129 51.6964 111.272C52.0535 110.415 52.2368 108.889 52.2368 106.686V96.9482C52.2368 95.6768 51.8074 95.0364 50.9534 95.0364V94.8857H55.2377V95.0364C54.3886 95.0364 53.9689 95.6721 53.9689 96.9482V107.354C53.9689 109.309 53.5974 110.731 52.8495 111.63C52.1017 112.529 51.0692 112.977 49.7473 112.977V112.986H49.7521Z" fill="#010202"/>
<path d="M72.1388 100.475C73.0314 99.877 74.006 99.5757 75.0577 99.5757C76.1095 99.5757 77.0793 99.877 77.9767 100.475C78.8692 101.073 79.5736 101.888 80.0947 102.914C80.6109 103.941 80.8715 105.061 80.8715 106.276C80.8715 107.491 80.6109 108.616 80.0947 109.643C79.5785 110.674 78.8741 111.489 77.9767 112.087C77.0841 112.685 76.1095 112.986 75.0577 112.986C74.006 112.986 73.0362 112.685 72.1388 112.087C71.2463 111.489 70.537 110.674 70.016 109.643C69.4949 108.612 69.2344 107.491 69.2344 106.276C69.2344 105.061 69.4949 103.941 70.016 102.914C70.537 101.888 71.2463 101.078 72.1388 100.475ZM73.0121 111.724C73.6393 112.285 74.3196 112.567 75.0577 112.567C75.7959 112.567 76.4762 112.285 77.1034 111.724C77.7306 111.164 78.2275 110.401 78.5894 109.436C78.9512 108.47 79.1346 107.42 79.1346 106.276C79.1346 105.132 78.9512 104.082 78.5894 103.117C78.2227 102.151 77.7306 101.393 77.1034 100.833C76.4762 100.273 75.7959 99.9948 75.0577 99.9948C74.3196 99.9948 73.6393 100.273 73.0121 100.833C72.3849 101.393 71.8879 102.151 71.5164 103.117C71.1498 104.082 70.9616 105.132 70.9616 106.276C70.9616 107.42 71.1449 108.47 71.5164 109.436C71.8831 110.401 72.3849 111.164 73.0121 111.724Z" fill="#010202"/>
<path d="M97.8584 110.641C97.8584 111.908 98.2878 112.539 99.1417 112.539V112.69H94.8574V112.539C95.7066 112.539 96.1263 111.908 96.1263 110.641V101.921C96.1263 100.649 95.7017 100.009 94.8574 100.009V99.8725H97.8584V110.641ZM97.8101 98.1868C97.5834 98.4081 97.3132 98.5211 96.9899 98.5211C96.6667 98.5211 96.3965 98.4081 96.1697 98.1868C95.943 97.9654 95.832 97.697 95.832 97.391C95.832 97.0849 95.9478 96.8071 96.1746 96.5858C96.4013 96.3645 96.6763 96.2515 96.9899 96.2515C97.3035 96.2515 97.5737 96.3645 97.8053 96.5858C98.0321 96.8071 98.1478 97.0802 98.1478 97.391C98.1478 97.7018 98.0369 97.9607 97.8101 98.1868Z" fill="#010202"/>
<path d="M123.704 110.641C123.704 111.908 124.128 112.539 124.973 112.539V112.69H123.106C122.792 112.69 122.527 112.581 122.305 112.365C122.083 112.148 121.972 111.889 121.972 111.583C120.954 112.515 119.748 112.986 118.348 112.986C116.867 112.986 115.598 112.53 114.556 111.611C113.514 110.693 112.988 109.587 112.988 108.287C112.988 106.987 113.509 105.881 114.556 104.963C115.603 104.044 116.867 103.588 118.348 103.588C118.715 103.588 119.077 103.569 119.444 103.531C119.806 103.494 120.182 103.432 120.563 103.352C120.944 103.268 121.258 103.14 121.504 102.961C121.75 102.783 121.885 102.575 121.909 102.335C121.798 101.506 121.557 100.913 121.185 100.551C120.814 100.188 120.278 100.004 119.584 100.004C118.831 100.004 117.996 100.277 117.084 100.828C116.173 101.379 115.415 101.958 114.817 102.571L113.968 101.554C114.73 100.993 115.632 100.522 116.67 100.146C117.707 99.7689 118.681 99.5806 119.588 99.5806C120.394 99.5806 121.074 99.6842 121.629 99.8866C122.184 100.089 122.609 100.381 122.898 100.762C123.192 101.144 123.4 101.558 123.521 102.001C123.641 102.448 123.704 102.961 123.704 103.541V110.651V110.641ZM121.977 111.065V103.536C121.977 103.263 121.977 103.065 121.962 102.943C121.692 103.338 121.224 103.616 120.563 103.776C119.902 103.931 119.256 104.011 118.619 104.011C117.567 104.011 116.655 104.426 115.878 105.25C115.101 106.079 114.716 107.091 114.716 108.292C114.716 109.492 115.101 110.505 115.878 111.334C116.655 112.162 117.567 112.572 118.619 112.572C119.222 112.572 119.82 112.44 120.423 112.176C121.026 111.913 121.542 111.545 121.972 111.07H121.977V111.065Z" fill="#010202"/>
<path d="M140.138 102.481C140.138 102.872 140.239 103.206 140.451 103.493C140.664 103.78 140.934 104.011 141.286 104.19C141.633 104.369 142.034 104.524 142.487 104.656C142.941 104.788 143.418 104.91 143.925 105.023C144.432 105.136 144.933 105.249 145.43 105.372C145.932 105.49 146.405 105.645 146.858 105.838C147.312 106.026 147.712 106.252 148.06 106.516C148.407 106.775 148.682 107.114 148.894 107.528C149.102 107.943 149.208 108.418 149.208 108.955C149.208 110.095 148.745 111.055 147.819 111.832C146.892 112.609 145.696 113 144.229 113C143.119 113 142.092 112.783 141.146 112.355C140.2 111.926 139.433 111.338 138.84 110.594L140.06 109.553C140.664 110.495 141.397 111.234 142.261 111.762C143.124 112.289 144.06 112.557 145.068 112.557C145.908 112.557 146.641 112.294 147.273 111.762C147.905 111.234 148.219 110.533 148.219 109.666C148.219 109.078 148.045 108.583 147.703 108.178C147.36 107.773 146.912 107.467 146.361 107.255C145.811 107.043 145.204 106.865 144.538 106.709C143.872 106.558 143.206 106.398 142.536 106.238C141.865 106.078 141.257 105.885 140.707 105.668C140.157 105.452 139.708 105.127 139.366 104.708C139.023 104.284 138.85 103.776 138.85 103.168C138.85 102.184 139.303 101.341 140.21 100.644C141.117 99.9474 142.338 99.5942 143.872 99.5942C144.837 99.5942 145.749 99.8061 146.603 100.235C147.457 100.658 148.185 101.252 148.779 102L147.659 102.857C147.051 101.897 146.333 101.172 145.512 100.673C144.692 100.178 143.8 99.9662 142.844 100.042C142.039 100.107 141.387 100.362 140.895 100.8C140.398 101.238 140.152 101.803 140.152 102.5L140.138 102.481Z" fill="#010202"/>
<path d="M101.169 3.22552L105.598 1.17723L111.851 0.35791L118.292 2.91004L123.609 11.0138V16.8855L116.608 29.9099L101.54 40.9754L85.8169 30.2301L79.3663 17.9356L79.0527 11.7436L83.53 3.36208L90.6705 0.631016L96.1755 1.08776L101.169 3.22552Z" stroke="#010202" stroke-width="0.94" stroke-miterlimit="10"/>
<path d="M101.169 3.49854L98.4141 10.5569L101.333 13.1514L105.135 11.3339V8.14605L101.169 3.49854Z" stroke="#010202" stroke-width="0.94" stroke-miterlimit="10"/>
<path d="M105.459 11.1503L110.033 7.68939L102.005 4.48275L101.17 3.22552L105.628 1.2714L106.887 1.11601L106.313 3.08897L103.452 4.95362L109.685 7.45866L111.823 0.423828L106.405 3.0513L106.361 3.07484L106.356 3.02304" stroke="#010202" stroke-width="0.94" stroke-miterlimit="10"/>
<path d="M110.147 7.67059L114.817 6.8654L118.262 2.96187L114.837 6.94545L123.492 11.5035L123.536 11.5176L123.584 11.5506L115.922 13.4953L114.731 6.95957L110.051 7.74122L110.726 13.1515L115.811 13.4199L115.859 13.4247L123.492 16.9374L109.337 24.2076L116.458 13.7684L110.692 13.1892L109.747 16.603L112.415 19.579L111.537 20.8927L109.105 20.3276L109.694 16.5983L110.605 13.2457L106.861 13.0338L101.477 18.9056L109.341 18.5619L109.062 20.2193L108.825 20.8315L101.303 18.9904L109.235 24.283L101.381 18.9386L101.371 13.1515L105.53 11.155L101.434 18.9009L106.828 12.9726L105.472 11.108L101.168 13.0809L98.3894 10.6183L98.3653 12.9255L101.289 18.8632L93.5454 13.5518L98.3074 12.2804L93.4248 13.5188L93.0195 6.44161L99.7644 4.68997L100.488 5.05254L99.7885 4.63817L98.3267 4.98662L93.3331 0.979492" stroke="#010202" stroke-width="0.94" stroke-miterlimit="10"/>
<path d="M90.2843 0.781738L93.0247 6.36629L86.5259 2.22261L83.5974 3.43746L93.348 12.1015V13.5094L86.0772 13.0715L88.4703 7.939V7.88721L88.4124 7.78832L88.422 7.6706L81.3346 7.49638L81.7929 6.63939L86.9553 6.54051L88.2532 7.63293L79.1442 11.6871L79.1152 12.2475L86.1544 12.6948L86.275 12.53L86.304 12.4876L86.386 12.4782L86.0145 13.128L79.3034 15.1245L79.3709 17.3423L88.2146 17.2529L85.0062 13.4953L89.1023 18.7549L93.4059 18.5948L93.073 13.5659L93.4445 18.5431L101.13 18.9009L93.623 25.2294L93.3094 18.6608L89.0782 18.8444L93.5169 25.1447L93.623 25.2671L79.3709 17.7708L86.5935 23.8451L90.955 24.0287L92.9958 25.0741L88.7018 26.9623L86.7189 23.911L81.8508 22.6726L82.9026 24.6785L87.79 25.6956L88.6632 27.047L85.8553 30.1642L85.0399 28.6103L88.3159 26.6468L95.5866 34.3973L95.4178 36.6811L91.6497 34.2278L89.7005 28.2477L89.9611 28.3137L93.5748 25.3519L93.9125 25.4978L90.9212 29.3449L96.6674 31.0541L94.0331 25.4884L93.8449 25.1682L101.391 30.3572L101.333 30.6633L96.7976 31.1295L99.5525 36.5586L98.0134 37.7217L95.6108 34.4209L97.9893 37.7829L98.0713 38.6399L100.928 40.561L99.5622 36.6481L100.011 36.3279L101.323 37.0201L101.396 40.74L101.357 30.7339L101.473 30.3007L101.304 18.9998L103.948 20.7656L101.535 30.3007L109.236 24.2924L107.079 30.8046L101.473 30.4514L101.41 37.1425L107.036 30.8846L101.671 40.8907L110.07 31.9723V34.6139L109.897 29.6086C109.897 29.6086 112.777 27.3201 112.825 27.3201C112.873 27.3201 116.559 29.957 116.559 29.957L112.806 27.2636L122.19 19.546L120.776 20.5396L119.763 18.8585L109.318 24.2406L107.127 30.7575L109.848 29.6086" stroke="#010202" stroke-width="0.94" stroke-miterlimit="10"/>
</g>
<defs>
<clipPath id="clip0_94_2">
<rect width="205" height="113" fill="white"/>
</clipPath>
</defs>
</svg>
