<svg width="43" height="43" viewBox="0 0 43 43" fill="none" xmlns="http://www.w3.org/2000/svg">
<path d="M21.4997 7.38538L19.5728 5.40469C15.0497 0.755318 6.75609 2.35976 3.76222 8.20507C2.35666 10.9544 2.03953 14.9238 4.60609 19.9898C7.07859 24.8676 12.2225 30.7102 21.4997 37.0742C30.777 30.7102 35.9182 24.8676 38.3933 19.9898C40.9599 14.9211 40.6455 10.9544 39.2372 8.20507C36.2433 2.35976 27.9497 0.752631 23.4267 5.40201L21.4997 7.38538ZM21.4997 40.3126C-19.7077 13.0829 8.81203 -8.16987 21.0267 3.07194C21.188 3.22065 21.3456 3.37384 21.4997 3.53151C21.6511 3.37284 21.8089 3.22043 21.9727 3.07463C34.1847 -8.17524 62.7072 13.0802 21.4997 40.3126Z" fill="black"/>
</svg>
