<?xml version="1.0" encoding="UTF-8"?>
<svg id="Camada_2" data-name="Camada 2" xmlns="http://www.w3.org/2000/svg" viewBox="0 0 141.17 133.33">
  <defs>
    <style>
      .cls-1 {
        fill: none;
        stroke: #fff;
        stroke-miterlimit: 10;
      }
    </style>
  </defs>
  <g id="Camada_1-2" data-name="Camada 1">
    <g>
      <polygon class="cls-1" points="71.64 9.5 85.32 3.08 104.56 .52 124.23 8.64 140.48 34.3 140.48 52.68 119.1 93.73 72.49 128.37 24.6 94.59 4.51 56.1 3.65 36.44 17.33 9.93 39.14 1.37 56.25 3.08 71.64 9.5"/>
      <polygon class="cls-1" points="71.64 10.35 63.09 32.59 72.07 40.71 83.61 35.15 83.61 25.32 71.64 10.35"/>
      <polyline class="cls-1" points="84.89 34.72 99 23.61 74.2 13.77 71.64 9.5 85.32 3.51 89.17 3.08 87.46 9.07 78.48 15.06 97.72 22.75 104.13 .95 87.46 9.07 87.46 9.07 87.46 9.07"/>
      <polyline class="cls-1" points="99 23.61 113.54 21.04 124.23 8.64 113.54 21.47 140.05 35.58 140.48 35.58 140.48 36.01 116.96 41.99 113.11 21.47 99 24.04 100.71 40.71 116.53 41.57 116.53 41.57 140.05 52.68 96.44 75.77 118.67 42.85 100.71 41.14 97.72 51.83 106.27 61.24 103.28 65.08 96.01 63.37 97.72 51.83 100.71 41.14 89.17 40.28 72.49 59.1 96.44 57.81 95.58 62.95 95.16 65.08 72.07 59.1 96.44 75.77 72.07 59.1 72.07 40.71 84.89 34.72 72.49 59.1 89.17 40.28 84.89 34.3 71.64 40.71 63.09 33.01 63.09 40.28 72.07 58.67 48.12 41.99 62.66 38.15 47.69 41.99 46.41 19.76 67.36 14.2 69.5 15.48 67.36 14.2 62.66 15.06 47.69 2.66"/>
      <path class="cls-1" d="M38.29,1.8l8.55,17.53L26.74,6.5l-8.98,3.85,29.93,27.37v4.28l-22.23-1.28,7.27-16.25h0v-.43h0l-21.81-.86,1.28-2.57h15.82l3.85,2.99L3.65,36.44v1.71l21.38,1.28h0v-.43l-1.28,2.14-20.52,6.41v6.84h27.37l-9.83-11.97,12.4,16.68h13.26c0-.43-.86-16.25-.86-16.25l1.28,15.82,23.52,1.28-23.09,20.1-.86-20.52h-12.83c0,.43,13.68,20.52,13.68,20.52h0L3.65,56.96l22.23,19.24h13.26c0,.43,6.41,3.85,6.41,3.85l-13.26,5.99-5.99-9.41-14.97-3.85,3.42,6.41,14.97,2.99,2.57,4.28-8.55,9.83-2.57-5.13,10.26-5.99,22.23,24.37v7.27c-.43,0-11.97-7.7-11.97-7.7l-5.99-18.81h.86l11.12-8.98h.86c0,.43-9.41,12.4-9.41,12.4l17.53,5.56-8.12-17.53v-.86c-.43,0,22.66,16.25,22.66,16.25v.86l-14.11,1.28,8.55,17.1-4.7,3.85-7.27-10.26,7.27,10.69v2.57l8.98,5.99-4.28-12.4,1.28-.86,3.85,2.14v11.54V61.24l8.12,5.56-7.27,29.93,23.52-18.81-6.41,20.52-17.1-1.28v20.95l17.1-19.67-16.68,31.64,25.66-28.22v8.12-15.82c-.43,0,8.12-7.27,8.55-7.27s11.54,8.12,11.54,8.12l-11.54-8.55,28.65-24.37-4.28,2.99-2.99-5.13-32.07,17.1-6.84,20.52,8.55-3.42"/>
    </g>
  </g>
</svg>