<svg width="127" height="118" viewBox="0 0 127 118" fill="none" xmlns="http://www.w3.org/2000/svg">
<g clip-path="url(#clip0_23_25)">
<path d="M64.3269 9.00917L76.4442 3.29022L93.5363 0.998901L111.142 8.1226L125.684 30.7486V47.1438L106.55 83.499L65.3482 114.385L22.3611 84.3856L4.71147 50.0657L3.85938 32.7777L16.1083 9.39001L35.625 1.76684L50.6746 3.03425L64.3269 9.00917Z" stroke="#010101" stroke-width="1.98" stroke-miterlimit="10"/>
<path d="M64.3265 9.77087L56.8018 29.475L64.7714 36.7236L75.172 31.6352V22.7384L64.3265 9.77087Z" stroke="#010101" stroke-width="1.98" stroke-miterlimit="10"/>
<path d="M76.0623 31.1295L88.5618 21.4647L66.614 12.5117L64.3271 9.00914L76.5196 3.54618L79.9656 3.10914L78.393 8.6158L70.5675 13.829L87.6157 20.8216L93.4613 1.17993L78.6436 8.50967L78.5183 8.57834V8.44723" stroke="#010101" stroke-width="1.98" stroke-miterlimit="10"/>
<path d="M88.8877 21.4147L101.657 19.1609L111.067 8.26615L101.707 19.3856L125.371 32.1159L125.484 32.1471L125.616 32.2532L104.67 37.6725L101.412 19.4293L88.6183 21.6145L90.4666 36.7235L104.37 37.4602L104.495 37.479L125.371 47.2873L86.6635 67.5846L106.136 38.4342L90.3726 36.8234L87.785 46.3508L95.0842 54.6545L92.6845 58.3194L86.0369 56.7398L87.6409 46.3383L90.1408 36.9732L79.8906 36.3801L65.1794 52.7815L86.6823 51.8138L85.9116 56.4401L85.2726 58.157L64.6969 53.0125L86.3815 67.7906L64.9162 52.8689L64.8849 36.7235L76.2504 31.1357L65.0603 52.7628L79.8091 36.2178L76.1 31.0046L64.3273 36.5237L56.7273 29.6373L56.6647 36.0804L64.6593 52.6629L43.4885 37.8348L56.5018 34.2761L43.1627 37.7349L42.0537 17.9871L60.4866 13.0923L62.4664 14.11L60.5492 12.9425L56.5581 13.9164L42.9058 2.72827" stroke="#010101" stroke-width="1.98" stroke-miterlimit="10"/>
<path d="M34.5662 2.17896L42.0534 17.7687L24.2784 6.19345L16.2775 9.58985L42.9368 33.7767V37.7038L23.0566 36.4864L29.5915 22.1515L29.604 22.0017L29.4348 21.7208L29.4599 21.3899L10.0747 20.9029L11.3278 18.5054L25.4438 18.2307L28.9962 21.2837L4.09748 32.6092L4.00977 34.1763L23.2634 35.425L23.5955 34.9692L23.6769 34.8506L23.8962 34.8194L22.8812 36.6362L4.5298 42.2053L4.71149 48.3925L28.8897 48.1365L20.1182 37.6476L31.3207 52.3321L43.0872 51.8888L42.1787 37.8537L43.1874 51.7514L64.2016 52.7504L43.6699 70.4129L42.8115 52.0761L31.2455 52.5818L43.3879 70.1632L43.6761 70.5128L4.71149 49.5912L24.4601 66.542L36.3894 67.0477L41.9719 69.9696L30.2368 75.2453L24.8172 66.7293L11.5095 63.2767L14.3853 68.877L27.7494 71.7115L30.1366 75.4825L22.4614 84.1796L20.2309 79.8342L29.1842 74.3463L49.0644 95.9796L48.607 102.354L38.3067 95.5051L32.9811 78.804L33.6953 78.9913L43.5821 70.7251L44.5094 71.1372L36.3268 81.8758L52.0405 86.652L44.8352 71.1122L44.3277 70.2194L64.9597 84.7103L64.8031 85.5656L52.3976 86.8705L59.9349 102.029L55.7245 105.27L49.1521 96.0483L55.6493 105.438L55.8749 107.83L63.6753 113.193L59.9411 102.273L61.1754 101.38L64.7655 103.309L64.9597 113.692L64.8532 85.7592L65.1728 84.5542L64.7154 53.0064L71.9457 57.9324L65.3482 84.5542L86.4 67.7845L80.498 85.9652L65.1665 84.985L64.9973 103.659L80.3789 86.1837L65.7116 114.123L88.6806 89.2305V96.6039L88.2044 82.6312C88.2044 82.6312 96.0801 76.2442 96.2116 76.2442C96.3432 76.2442 106.418 83.6114 106.418 83.6114L96.149 76.0944L121.806 54.5547L117.946 57.333L115.183 52.638L86.6193 67.6658L80.6358 85.8653L88.0854 82.6562" stroke="#010101" stroke-width="1.98" stroke-miterlimit="10"/>
</g>
<defs>
<clipPath id="clip0_23_25">
<rect width="127" height="118" fill="white"/>
</clipPath>
</defs>
</svg>
