<svg width="47" height="48" viewBox="0 0 47 48" fill="none" xmlns="http://www.w3.org/2000/svg">
<path d="M23.6074 18C25.9446 18 28.1861 17.0518 29.8388 15.364C31.4915 13.6761 32.4199 11.3869 32.4199 9C32.4199 6.61305 31.4915 4.32387 29.8388 2.63604C28.1861 0.948212 25.9446 0 23.6074 0C21.2702 0 19.0287 0.948212 17.376 2.63604C15.7234 4.32387 14.7949 6.61305 14.7949 9C14.7949 11.3869 15.7234 13.6761 17.376 15.364C19.0287 17.0518 21.2702 18 23.6074 18ZM29.4824 9C29.4824 10.5913 28.8634 12.1174 27.7617 13.2426C26.6599 14.3679 25.1656 15 23.6074 15C22.0493 15 20.5549 14.3679 19.4532 13.2426C18.3514 12.1174 17.7324 10.5913 17.7324 9C17.7324 7.4087 18.3514 5.88258 19.4532 4.75736C20.5549 3.63214 22.0493 3 23.6074 3C25.1656 3 26.6599 3.63214 27.7617 4.75736C28.8634 5.88258 29.4824 7.4087 29.4824 9ZM41.2324 33C41.2324 36 38.2949 36 38.2949 36H8.91992C8.91992 36 5.98242 36 5.98242 33C5.98242 30 8.91992 21 23.6074 21C38.2949 21 41.2324 30 41.2324 33ZM38.2949 32.988C38.292 32.25 37.8425 30.03 35.8509 27.996C33.9357 26.04 30.3314 24 23.6074 24C16.8835 24 13.2792 26.04 11.3639 27.996C9.3723 30.03 8.9258 32.25 8.91992 32.988H38.2949Z" fill="black"/>
</svg>
