<svg width="28" height="28" viewBox="0 0 28 28" fill="none" xmlns="http://www.w3.org/2000/svg">
<g clip-path="url(#clip0_254_84)">
<path d="M20.5481 18.1017C22.2426 15.7895 23.0016 12.9226 22.6732 10.0748C22.3447 7.22691 20.9531 4.60809 18.7767 2.74223C16.6003 0.87636 13.7997 -0.0989451 10.9351 0.0114329C8.07048 0.121811 5.35319 1.30973 3.32684 3.33754C1.30048 5.36534 0.114507 8.08348 0.00617831 10.9482C-0.10215 13.8128 0.875159 16.6128 2.74258 18.7878C4.61 20.9629 7.22982 22.3526 10.0779 22.679C12.926 23.0054 15.7923 22.2444 18.1034 20.5482H18.1016C18.153 20.6182 18.2101 20.6853 18.2731 20.7495L25.0106 27.487C25.3388 27.8154 25.7839 27.9999 26.2481 28.0001C26.7123 28.0003 27.1576 27.816 27.486 27.4879C27.8144 27.1597 27.9989 26.7146 27.9991 26.2504C27.9993 25.7861 27.815 25.3409 27.4869 25.0125L20.7494 18.275C20.6868 18.2116 20.6196 18.1549 20.5481 18.1017ZM20.9996 11.3747C20.9996 12.6387 20.7507 13.8903 20.267 15.0581C19.7833 16.2258 19.0743 17.2869 18.1805 18.1807C17.2868 19.0744 16.2257 19.7834 15.0579 20.2671C13.8902 20.7508 12.6386 20.9997 11.3746 20.9997C10.1106 20.9997 8.85905 20.7508 7.69129 20.2671C6.52353 19.7834 5.46248 19.0744 4.56872 18.1807C3.67495 17.2869 2.96598 16.2258 2.48228 15.0581C1.99858 13.8903 1.74962 12.6387 1.74962 11.3747C1.74962 8.82204 2.76368 6.37388 4.56872 4.56885C6.37375 2.76381 8.82191 1.74975 11.3746 1.74975C13.9273 1.74975 16.3755 2.76381 18.1805 4.56885C19.9856 6.37388 20.9996 8.82204 20.9996 11.3747Z" fill="white"/>
</g>
<defs>
<clipPath id="clip0_254_84">
<rect width="28" height="28" fill="white"/>
</clipPath>
</defs>
</svg>
