<svg width="25" height="25" viewBox="0 0 25 25" fill="none" xmlns="http://www.w3.org/2000/svg">
<g clip-path="url(#clip0_111_43)">
<path d="M24.7723 0.228298C24.8804 0.336629 24.9544 0.474352 24.9849 0.624356C25.0155 0.774361 25.0013 0.930038 24.9441 1.07205L15.852 23.8017C15.7718 24.0019 15.638 24.1761 15.4653 24.3051C15.2925 24.4342 15.0876 24.513 14.8729 24.5331C14.6582 24.5531 14.4421 24.5135 14.2485 24.4187C14.0549 24.3238 13.8912 24.1774 13.7754 23.9955L8.80977 16.1908L1.00508 11.2252C0.822768 11.1095 0.675946 10.9458 0.580818 10.7519C0.485691 10.5581 0.445956 10.3418 0.465998 10.1268C0.486041 9.91185 0.565081 9.70659 0.694398 9.5337C0.823715 9.36081 0.998281 9.227 1.19883 9.14705L23.9285 0.0579855C24.0705 0.000817132 24.2262 -0.0133699 24.3762 0.0171866C24.5262 0.0477431 24.6639 0.121697 24.7723 0.22986V0.228298ZM10.3691 15.7345L14.6832 22.5127L22.0785 4.02517L10.3691 15.7345ZM20.9738 2.92049L2.48633 10.3158L9.26602 14.6283L20.9738 2.92049Z" fill="black"/>
</g>
<defs>
<clipPath id="clip0_111_43">
<rect width="25" height="25" fill="white"/>
</clipPath>
</defs>
</svg>
