<svg width="25" height="25" viewBox="0 0 25 25" fill="none" xmlns="http://www.w3.org/2000/svg">
<g clip-path="url(#clip0_111_47)">
<path d="M5.71011 2.07497C5.61787 1.95632 5.50144 1.85865 5.36855 1.78845C5.23566 1.71825 5.08936 1.67713 4.93936 1.66782C4.78936 1.65851 4.63909 1.68122 4.49854 1.73445C4.35799 1.78768 4.23038 1.8702 4.12417 1.97653L2.50855 3.59372C1.75386 4.34997 1.47574 5.42029 1.80542 6.35935C3.17531 10.2455 5.40098 13.774 8.31792 16.6843C11.2282 19.6013 14.7568 21.827 18.6429 23.1968C19.582 23.5265 20.6523 23.2484 21.4085 22.4937L23.0242 20.8781C23.1305 20.7719 23.213 20.6443 23.2663 20.5037C23.3195 20.3632 23.3422 20.2129 23.3329 20.0629C23.3236 19.9129 23.2825 19.7666 23.2123 19.6337C23.1421 19.5008 23.0444 19.3844 22.9257 19.2922L19.321 16.489C19.1942 16.3909 19.0467 16.3228 18.8898 16.2898C18.7328 16.2568 18.5704 16.2597 18.4148 16.2984L14.9929 17.1531C14.5361 17.2665 14.0578 17.26 13.6042 17.1344C13.1507 17.0088 12.7372 16.7682 12.4039 16.4359L8.56636 12.5968C8.23383 12.2637 7.99295 11.8503 7.86703 11.3967C7.74111 10.9431 7.73442 10.4647 7.84761 10.0078L8.70386 6.58591C8.74255 6.43026 8.74549 6.26787 8.71248 6.11092C8.67947 5.95397 8.61135 5.80653 8.51324 5.67966L5.71011 2.07497ZM2.94449 0.79841C3.21792 0.524894 3.5464 0.312676 3.90814 0.17585C4.26988 0.0390228 4.65658 -0.0192824 5.04258 0.00480552C5.42858 0.0288935 5.80504 0.134823 6.14696 0.315561C6.48888 0.496299 6.78843 0.747709 7.02574 1.0531L9.82886 4.65622C10.3429 5.31716 10.5242 6.1781 10.321 6.9906L9.46636 10.4125C9.42248 10.5897 9.42502 10.7753 9.47374 10.9513C9.52245 11.1273 9.6157 11.2877 9.74449 11.4172L13.5835 15.2562C13.7132 15.3853 13.8739 15.4787 14.0502 15.5274C14.2264 15.5761 14.4123 15.5785 14.5898 15.5343L18.0101 14.6797C18.4111 14.58 18.8295 14.5725 19.2338 14.6577C19.6381 14.743 20.0179 14.9188 20.3445 15.1718L23.9476 17.975C25.2429 18.9828 25.3617 20.8968 24.2023 22.0547L22.5867 23.6703C21.4304 24.8265 19.7023 25.3343 18.0914 24.7672C13.9674 23.3181 10.2235 20.9574 7.13824 17.8609C4.04194 14.7761 1.68129 11.0327 0.231986 6.90935C-0.333639 5.29997 0.174173 3.57029 1.33042 2.41404L2.94449 0.79841Z" fill="black"/>
</g>
<defs>
<clipPath id="clip0_111_47">
<rect width="25" height="25" fill="white"/>
</clipPath>
</defs>
</svg>
