<svg width="40" height="40" viewBox="0 0 40 40" fill="none" xmlns="http://www.w3.org/2000/svg">
<path d="M5.45977e-09 8.75C5.45977e-09 7.75544 0.395088 6.80161 1.09835 6.09835C1.80161 5.39509 2.75544 5 3.75 5H26.25C27.2446 5 28.1984 5.39509 28.9017 6.09835C29.6049 6.80161 30 7.75544 30 8.75V12.5H32.55C33.1118 12.5005 33.6664 12.6272 34.1727 12.8709C34.679 13.1145 35.124 13.4688 35.475 13.9075L39.1775 18.5325C39.7102 19.198 40.0003 20.0251 40 20.8775V26.25C40 27.2446 39.6049 28.1984 38.9016 28.9017C38.1984 29.6049 37.2446 30 36.25 30H35C35 31.3261 34.4732 32.5979 33.5355 33.5355C32.5979 34.4732 31.3261 35 30 35C28.6739 35 27.4021 34.4732 26.4645 33.5355C25.5268 32.5979 25 31.3261 25 30H12.5C12.5014 30.6665 12.3696 31.3265 12.1123 31.9413C11.855 32.556 11.4774 33.1132 11.0016 33.5799C10.5259 34.0467 9.96164 34.4136 9.34205 34.6591C8.72246 34.9046 8.06004 35.0238 7.39373 35.0097C6.72742 34.9955 6.07067 34.8483 5.46207 34.5766C4.85348 34.305 4.30534 33.9144 3.84987 33.4279C3.3944 32.9413 3.04079 32.3687 2.80984 31.7435C2.57888 31.1183 2.47524 30.4533 2.505 29.7875C1.77262 29.5297 1.13831 29.051 0.689611 28.4173C0.240914 27.7837 -4.18799e-05 27.0264 5.45977e-09 26.25L5.45977e-09 8.75ZM3.235 27.39C3.68748 26.6506 4.32442 26.0415 5.08332 25.6226C5.84222 25.2036 6.697 24.9892 7.56379 25.0003C8.43058 25.0114 9.27959 25.2476 10.0275 25.6859C10.7754 26.1241 11.3966 26.7493 11.83 27.5H25.67C26.1088 26.74 26.74 26.1088 27.5 25.67V8.75C27.5 8.41848 27.3683 8.10054 27.1339 7.86612C26.8995 7.6317 26.5815 7.5 26.25 7.5H3.75C3.41848 7.5 3.10054 7.6317 2.86612 7.86612C2.6317 8.10054 2.5 8.41848 2.5 8.75V26.25C2.4998 26.4906 2.56905 26.7261 2.69943 26.9284C2.8298 27.1306 3.01577 27.2909 3.235 27.39ZM30 25C30.8777 25 31.7399 25.2311 32.4999 25.6699C33.26 26.1087 33.8912 26.7399 34.33 27.5H36.25C36.5815 27.5 36.8995 27.3683 37.1339 27.1339C37.3683 26.8995 37.5 26.5815 37.5 26.25V20.875C37.4995 20.5913 37.4025 20.3163 37.225 20.095L33.525 15.47C33.4081 15.3236 33.2598 15.2054 33.091 15.124C32.9222 15.0426 32.7374 15.0003 32.55 15H30V25ZM7.5 27.5C6.83696 27.5 6.20107 27.7634 5.73223 28.2322C5.26339 28.7011 5 29.337 5 30C5 30.663 5.26339 31.2989 5.73223 31.7678C6.20107 32.2366 6.83696 32.5 7.5 32.5C8.16304 32.5 8.79893 32.2366 9.26777 31.7678C9.73661 31.2989 10 30.663 10 30C10 29.337 9.73661 28.7011 9.26777 28.2322C8.79893 27.7634 8.16304 27.5 7.5 27.5ZM30 27.5C29.337 27.5 28.7011 27.7634 28.2322 28.2322C27.7634 28.7011 27.5 29.337 27.5 30C27.5 30.663 27.7634 31.2989 28.2322 31.7678C28.7011 32.2366 29.337 32.5 30 32.5C30.663 32.5 31.2989 32.2366 31.7678 31.7678C32.2366 31.2989 32.5 30.663 32.5 30C32.5 29.337 32.2366 28.7011 31.7678 28.2322C31.2989 27.7634 30.663 27.5 30 27.5Z" fill="#674B3C"/>
</svg>
