<svg width="25" height="25" viewBox="0 0 25 25" fill="none" xmlns="http://www.w3.org/2000/svg">
<g clip-path="url(#clip0_117_53)">
<path d="M12.4797 24.9998C11.8521 24.995 11.2516 24.7435 10.8078 24.2998L0.703131 14.1904C0.480847 13.9684 0.304507 13.7047 0.184194 13.4145C0.0638803 13.1243 0.00195313 12.8132 0.00195312 12.499C0.00195313 12.1849 0.0638803 11.8738 0.184194 11.5835C0.304507 11.2933 0.480847 11.0296 0.703131 10.8076L10.8078 0.702937C11.0299 0.480419 11.2936 0.303881 11.584 0.183429C11.8744 0.0629771 12.1856 0.000976562 12.5 0.000976562C12.8144 0.000976562 13.1256 0.0629771 13.416 0.183429C13.7064 0.303881 13.9701 0.480419 14.1922 0.702937L24.3 10.8092C24.5244 11.0336 24.7019 11.3005 24.8221 11.5943C24.9423 11.888 25.0027 12.2027 25 12.5201C24.9952 13.1477 24.7437 13.7482 24.3 14.192L14.1906 24.2998C13.9664 24.524 13.6998 24.7014 13.4063 24.8216C13.1128 24.9418 12.7968 25.0023 12.4797 24.9998ZM11.9359 1.82794L7.44688 6.31856L12.5 11.3717L17.5531 6.31856L13.0641 1.82794C12.9901 1.75376 12.9021 1.69492 12.8053 1.65477C12.7085 1.61462 12.6048 1.59395 12.5 1.59395C12.3952 1.59395 12.2915 1.61462 12.1947 1.65477C12.0979 1.69492 12.01 1.75376 11.9359 1.82794ZM13.6281 12.4998L18.6813 17.5529L23.1703 13.0639C23.4828 12.7514 23.4828 12.2467 23.1703 11.9357L18.6813 7.44669L13.6281 12.4998ZM12.5 13.6279L7.44688 18.6811L11.9359 23.1701C12.2484 23.4826 12.7531 23.4826 13.0641 23.1701L17.5531 18.6811L12.5 13.6279ZM11.3719 12.4998L6.31876 7.44669L1.82813 11.9357C1.75396 12.0098 1.69511 12.0977 1.65496 12.1945C1.61481 12.2913 1.59414 12.395 1.59414 12.4998C1.59414 12.6046 1.61481 12.7084 1.65496 12.8051C1.69511 12.9019 1.75396 12.9899 1.82813 13.0639L6.31876 17.5529L11.3719 12.4998Z" fill="black"/>
</g>
<defs>
<clipPath id="clip0_117_53">
<rect width="25" height="25" fill="white"/>
</clipPath>
</defs>
</svg>
