<?xml version="1.0" encoding="UTF-8"?>
<svg id="Camada_2" data-name="Camada 2" xmlns="http://www.w3.org/2000/svg" viewBox="0 0 138.9 131.44">
  <defs>
    <style>
      .cls-1 {
        fill: none;
        stroke: #fff;
        stroke-miterlimit: 10;
        stroke-width: .5px;
      }
    </style>
  </defs>
  <g id="Camada_1-2" data-name="Camada 1">
    <g>
      <polygon class="cls-1" points="69.81 9.24 83.5 2.82 102.74 .26 122.41 8.38 138.65 34.04 138.65 52.42 117.27 93.47 70.67 128.11 22.78 94.33 2.68 55.84 1.83 36.17 15.51 9.66 37.32 1.11 54.42 2.82 69.81 9.24"/>
      <polygon class="cls-1" points="69.81 10.09 61.26 32.33 70.24 40.45 81.78 34.89 81.78 25.06 69.81 10.09"/>
      <polyline class="cls-1" points="83.07 34.46 97.18 23.35 72.38 13.51 69.81 9.24 83.5 3.25 87.34 2.82 85.63 8.81 76.65 14.79 95.9 22.49 102.31 .68 85.63 8.81 85.63 8.81 85.63 8.81"/>
      <polyline class="cls-1" points="97.18 23.35 111.72 20.78 122.41 8.38 111.72 21.21 138.23 35.32 138.65 35.32 138.65 35.75 115.14 41.73 111.29 21.21 97.18 23.77 98.89 40.45 114.71 41.3 114.71 41.3 138.23 52.42 94.61 75.51 116.85 42.59 98.89 40.88 95.9 51.57 104.45 60.97 101.45 64.82 94.18 63.11 95.9 51.57 98.89 40.88 87.34 40.02 70.67 58.84 94.61 57.55 93.76 62.68 93.33 64.82 70.24 58.84 94.61 75.51 70.24 58.84 70.24 40.45 83.07 34.46 70.67 58.84 87.34 40.02 83.07 34.04 69.81 40.45 61.26 32.75 61.26 40.02 70.24 58.41 46.3 41.73 60.83 37.88 45.87 41.73 44.58 19.5 65.54 13.94 67.67 15.22 65.54 13.94 60.83 14.79 45.87 2.39"/>
      <path class="cls-1" d="M36.46,1.54l8.55,17.53L24.92,6.24l-8.98,3.85,29.93,27.37v4.28l-22.23-1.28,7.27-16.25h0v-.43h0l-21.81-.86,1.28-2.57h15.82l3.85,2.99L1.83,36.17v1.71l21.38,1.28h0v-.43l-1.28,2.14L1.4,47.29v6.84h27.37l-9.83-11.97,12.4,16.68h13.26c0-.43-.86-16.25-.86-16.25l1.28,15.82,23.52,1.28-23.09,20.1-.86-20.52h-12.83c0,.43,13.68,20.52,13.68,20.52h0L1.83,56.7l22.23,19.24h13.26c0,.43,6.41,3.85,6.41,3.85l-13.26,5.99-5.99-9.41-14.97-3.85,3.42,6.41,14.97,2.99,2.57,4.28-8.55,9.83-2.57-5.13,10.26-5.99,22.23,24.37v7.27c-.43,0-11.97-7.7-11.97-7.7l-5.99-18.81h.86l11.12-8.98h.86c0,.43-9.41,12.4-9.41,12.4l17.53,5.56-8.12-17.53v-.86c-.43,0,22.66,16.25,22.66,16.25v.86l-14.11,1.28,8.55,17.1-4.7,3.85-7.27-10.26,7.27,10.69v2.57l8.98,5.99-4.28-12.4,1.28-.86,3.85,2.14v11.54V60.97l8.12,5.56-7.27,29.93,23.52-18.81-6.41,20.52-17.1-1.28v20.95l17.1-19.67-16.68,31.64,25.66-28.22v8.12-15.82c-.43,0,8.12-7.27,8.55-7.27s11.54,8.12,11.54,8.12l-11.54-8.55,28.65-24.37-4.28,2.99-2.99-5.13-32.07,17.1-6.84,20.52,8.55-3.42"/>
    </g>
  </g>
</svg>